PathFileType	4	(X/Y/Z)	C:/Users/opensim2020/Desktop/walking_exp_matlab/subject02_walking06_straight_02.trc	
DataRate	CameraRate	NumFrames	NumMarkers	Units	OrigDataRate	OrigDataStartFrame	OrigNumFrames	
100.00	100.00	8	41	mm	100.00	1592	183	
Frame#	Time	LFHD			RFHD			LBHD			RBHD			C7			T10			CLAV			STRN			RBAK			LSHO			LUPA			LELB			LFRM			LWRA			LWRB			LFIN			RSHO			RUPA			RELB			RFRM			RWRA			RWRB			RFIN			LASI			RASI			LPSI			RPSI			LTHI			LKNE			LTIB			LANK			LHEE			LTOE			RTHI			RKNE			RTIB			RANK			RHEE			RTOE			*39			*40			
		X1	Y1	Z1	X2	Y2	Z2	X3	Y3	Z3	X4	Y4	Z4	X5	Y5	Z5	X6	Y6	Z6	X7	Y7	Z7	X8	Y8	Z8	X9	Y9	Z9	X10	Y10	Z10	X11	Y11	Z11	X12	Y12	Z12	X13	Y13	Z13	X14	Y14	Z14	X15	Y15	Z15	X16	Y16	Z16	X17	Y17	Z17	X18	Y18	Z18	X19	Y19	Z19	X20	Y20	Z20	X21	Y21	Z21	X22	Y22	Z22	X23	Y23	Z23	X24	Y24	Z24	X25	Y25	Z25	X26	Y26	Z26	X27	Y27	Z27	X28	Y28	Z28	X29	Y29	Z29	X30	Y30	Z30	X31	Y31	Z31	X32	Y32	Z32	X33	Y33	Z33	X34	Y34	Z34	X35	Y35	Z35	X36	Y36	Z36	X37	Y37	Z37	X38	Y38	Z38	X39	Y39	Z39	X40	Y40	Z40	X41	Y41	Z41	

161	1.600	-918.54602	-826.77734	1727.89233	-1061.26892	-842.50824	1719.54187	-930.97791	-697.02704	1652.13550	-1073.24756	-700.34546	1642.11450	-1020.65472	-658.57996	1509.25867	-1032.13525	-631.47882	1228.20129	-991.65942	-802.73560	1454.95129	-1006.82446	-873.63635	1290.58984	-1098.87292	-625.68878	1333.12598	-833.99146	-702.68951	1477.93115	-758.66418	-682.21588	1275.25574	-749.34106	-680.09717	1134.87793	-733.47333	-692.05524	1004.27563	-750.31873	-756.65466	879.93866	-728.02789	-704.41211	882.03455	-719.72760	-722.72711	818.71082	-1194.96521	-763.41174	1494.84265	-1289.42114	-785.33826	1306.34802	-1310.98474	-839.69592	1169.33435	-1316.25830	-905.94202	1066.04907	-1276.16760	-977.62158	956.53662	-1324.73340	-950.76465	944.06854	-1309.31042	-1001.14368	893.29193	-891.24774	-893.22107	991.89569	-1144.32446	-881.91077	964.77032	-961.11438	-676.29236	1020.37231	-1076.71997	-667.65698	1015.12927	-844.58142	-878.52832	676.12061	-886.81091	-868.94806	473.20050	-896.08228	-825.02014	281.90387	-946.99719	-835.70447	64.79433	-1002.71051	-802.11121	38.42930	-930.41241	-990.78027	29.47798	-1232.57764	-798.69348	661.84357	-1233.69446	-804.18170	462.82425	-1220.36438	-656.37659	355.81885	-1170.41785	-517.57501	229.24171	-1100.53113	-474.85214	209.49359	-1211.02271	-559.36127	76.94065	-1013.65131	-734.09210	1798.77429	-3360.37378	2845.17676	1033.69995 
162	1.610	-916.61890	-835.64246	1729.25195	-1059.38440	-851.58478	1721.24390	-930.11871	-705.53693	1653.36316	-1072.34448	-709.63940	1643.53992	-1019.87622	-667.93719	1510.75586	-1030.43408	-640.51025	1229.62109	-990.72516	-811.91754	1456.29761	-1005.51599	-882.63470	1291.75098	-1097.26001	-634.93060	1334.34497	-832.85553	-712.26453	1479.73157	-756.78564	-693.73993	1277.13757	-746.62329	-694.54718	1136.44958	-730.73376	-709.14240	1005.91760	-747.69879	-778.80298	884.31042	-725.53040	-725.57196	884.23193	-716.67273	-746.10437	821.80646	-1193.99133	-772.65790	1496.07153	-1287.49243	-793.72998	1307.11804	-1308.64966	-847.15381	1169.53784	-1313.15930	-912.48413	1065.74524	-1272.39465	-983.09131	955.40588	-1321.15723	-956.24463	943.22864	-1305.19019	-1005.83234	891.68164	-889.34607	-901.66821	991.78864	-1143.26331	-890.60291	966.82635	-958.76062	-685.30072	1021.83136	-1074.15967	-676.04749	1016.97693	-843.50653	-882.64636	675.87793	-885.87872	-871.46136	472.91394	-895.40765	-826.28674	281.87576	-946.91870	-835.69116	64.78269	-1002.61975	-801.96729	38.48916	-930.44397	-990.69720	29.52058	-1231.38086	-813.86865	663.89160	-1232.77917	-823.75800	465.55835	-1219.73938	-676.73883	357.28683	-1170.23486	-539.58905	228.71065	-1100.40039	-496.76166	206.68150	-1215.63391	-584.20538	79.40832	-1012.15887	-742.80658	1800.18091	-3357.74878	2845.84521	1034.11584 
163	1.620	-915.06946	-843.82391	1730.63574	-1057.62329	-860.61621	1722.92468	-929.22296	-714.24628	1654.41516	-1071.43042	-718.91583	1644.91663	-1018.84009	-676.97699	1512.00061	-1028.66394	-649.49481	1231.03638	-989.71252	-821.24536	1457.64880	-1004.12885	-891.61719	1292.87207	-1095.79541	-644.24011	1335.53577	-831.78217	-721.88104	1481.57129	-754.85138	-705.65344	1278.95398	-743.60999	-708.34735	1138.12769	-728.20502	-727.06647	1007.84308	-745.77661	-799.09552	888.05536	-723.11542	-746.73883	886.73895	-713.65533	-769.72681	825.43646	-1192.97900	-782.05566	1497.16357	-1285.82874	-802.04834	1307.95435	-1306.22888	-854.50922	1169.69885	-1310.02588	-918.79541	1065.19568	-1268.87402	-988.33234	954.43567	-1317.79089	-961.50299	942.28119	-1301.37134	-1010.09338	889.89911	-887.46265	-909.85828	991.79224	-1141.99780	-899.28979	969.11151	-956.54077	-693.55615	1023.12787	-1071.82227	-684.50854	1018.78717	-842.45703	-886.91058	675.64172	-884.99896	-873.73535	472.70578	-894.90625	-827.41553	281.94461	-947.00098	-835.55402	64.62532	-1002.55835	-801.82330	38.53224	-930.43585	-990.77740	29.50931	-1230.25378	-828.88116	666.07562	-1231.55774	-842.74701	468.30450	-1218.96863	-696.92950	358.43835	-1170.46423	-562.13403	226.96043	-1100.97839	-519.33130	202.03859	-1219.71606	-610.52063	80.89278	-1010.79169	-751.41772	1801.55090	-3357.08447	2845.83813	1034.07996 
164	1.630	-913.80127	-852.17371	1731.76160	-1055.97009	-869.61859	1724.54382	-928.52881	-722.78937	1655.34241	-1070.58289	-728.21277	1646.11060	-1017.86115	-686.21893	1513.27478	-1026.92786	-658.35089	1232.45886	-988.81909	-830.33514	1458.89575	-1002.69598	-900.45398	1293.88074	-1094.33948	-653.38477	1336.68872	-830.71887	-731.50342	1483.41455	-753.02502	-717.54669	1280.96777	-740.97235	-722.21765	1140.07141	-725.55573	-745.12726	1010.21271	-743.59094	-819.66443	892.61053	-720.70251	-768.04016	889.66718	-710.96497	-793.30524	829.47125	-1191.89075	-791.36145	1498.37915	-1284.09570	-810.40302	1308.79639	-1303.67981	-861.72839	1169.76563	-1307.26697	-925.03027	1064.65344	-1265.47424	-993.23328	953.06610	-1314.27112	-966.53992	941.40839	-1297.73364	-1014.47607	888.46478	-885.51752	-917.77289	991.61981	-1140.49597	-908.04462	971.57776	-954.54364	-701.99738	1024.32141	-1069.78687	-693.12732	1020.45190	-841.28583	-891.67804	675.55133	-884.32642	-875.91400	472.48920	-894.49585	-828.50360	282.07510	-946.95532	-835.56921	64.67960	-1002.60522	-801.83075	38.51061	-930.41351	-990.64325	29.44216	-1229.15710	-843.68146	668.34308	-1230.12256	-861.08673	470.94656	-1217.94019	-717.10779	359.09244	-1170.97034	-585.18622	223.95047	-1102.08093	-542.30420	196.49928	-1223.52917	-638.16278	81.36897	-1009.50592	-759.99835	1802.75806	-3360.38965	2845.17383	1033.89026 
165	1.640	-912.29224	-860.57196	1733.08081	-1054.39929	-878.59210	1726.07581	-927.60956	-731.13824	1656.28601	-1069.85059	-737.49585	1647.23889	-1017.06940	-695.78076	1514.64343	-1025.21680	-667.21478	1233.83521	-987.83563	-839.47430	1460.08984	-1001.16479	-909.28888	1294.78540	-1092.49231	-662.65887	1337.71179	-829.72357	-741.03607	1485.24475	-751.20624	-729.70465	1283.34937	-738.24060	-736.28174	1142.35071	-722.93011	-763.24695	1012.84430	-741.45087	-840.76794	897.83899	-718.42609	-789.49500	893.15674	-708.32422	-816.76324	833.99689	-1190.82751	-800.91974	1499.33557	-1282.73254	-818.67334	1309.66882	-1301.75623	-868.63654	1169.90027	-1304.48889	-930.96417	1064.08777	-1262.37854	-998.58466	952.51941	-1310.99609	-971.40118	940.45605	-1294.32312	-1018.82056	887.24243	-883.46094	-925.36060	991.63745	-1138.58179	-916.96075	974.18353	-952.92401	-710.23608	1025.46191	-1068.15479	-701.75543	1021.92542	-839.95313	-895.14386	675.03705	-883.47339	-877.89722	472.34869	-894.13702	-829.39862	282.30594	-946.99744	-835.56329	64.70935	-1002.90350	-802.68158	38.42285	-930.42389	-990.91077	29.43068	-1228.18201	-858.28125	670.76849	-1228.49121	-879.01923	473.67429	-1216.87781	-737.28314	359.06662	-1171.80164	-608.65656	219.94826	-1103.36060	-565.72357	189.89656	-1226.85168	-666.86499	81.10248	-1008.39813	-768.45544	1803.89709	-3360.39038	2845.17456	1033.87512 
166	1.650	-910.81281	-868.61096	1734.45386	-1052.94800	-887.51624	1727.54626	-926.85822	-739.70282	1657.09314	-1069.07324	-746.72174	1648.16992	-1016.13953	-704.61493	1516.01245	-1023.52264	-675.98846	1235.18933	-986.84302	-848.65741	1461.22388	-999.48767	-918.08136	1295.62866	-1091.80237	-671.49420	1339.02759	-828.70624	-750.59113	1487.08447	-749.40900	-740.98444	1285.45166	-735.26495	-750.01941	1144.52649	-720.44934	-780.53015	1015.67627	-739.47510	-861.61450	903.41016	-716.09656	-810.54535	896.81934	-705.86230	-840.39490	839.06049	-1189.68774	-810.38147	1500.37598	-1280.85156	-827.07507	1310.32910	-1299.82666	-875.45166	1169.90491	-1302.15198	-936.87244	1063.56470	-1259.41943	-1003.51062	951.60797	-1307.85632	-976.21704	939.50220	-1290.97412	-1023.38770	886.12439	-881.25195	-932.52460	991.73981	-1136.32837	-926.08081	976.72406	-951.57373	-718.26471	1026.42566	-1066.96008	-710.45483	1023.30872	-838.63641	-898.97858	674.58295	-882.84418	-879.91766	472.19223	-894.04681	-830.08459	282.57654	-947.09174	-835.61017	64.79899	-1002.49615	-802.30231	38.71315	-930.04236	-990.71307	29.45657	-1227.14758	-872.67419	673.24152	-1226.66907	-896.54578	476.39035	-1215.99072	-757.45404	358.31839	-1172.74841	-632.89270	214.88367	-1105.11902	-590.37286	182.15544	-1229.69153	-696.55383	79.54848	-1007.71521	-777.09137	1805.18445	-3360.42700	2845.22168	1033.72961 
167	1.660	-909.23724	-877.15155	1735.88599	-1051.58997	-896.39880	1728.84021	-926.06335	-748.37268	1657.85120	-1068.34277	-755.93225	1648.90601	-1015.31274	-713.96826	1517.33984	-1021.92865	-684.60968	1236.44958	-985.86224	-857.76886	1462.23962	-997.80188	-926.75366	1296.33484	-1090.31799	-680.63025	1340.15137	-827.82190	-760.08960	1488.96960	-747.64551	-753.73291	1287.74878	-732.63794	-763.66064	1146.90454	-717.79816	-797.47864	1018.77252	-737.54028	-882.39209	909.28180	-713.78235	-831.68829	900.97266	-703.45508	-863.16803	844.33167	-1188.61963	-820.01508	1501.10876	-1279.45288	-835.39655	1310.86316	-1298.06763	-882.14911	1169.81506	-1299.89978	-942.64453	1063.02380	-1256.58643	-1008.76392	950.82111	-1304.97058	-980.97241	938.57556	-1287.74060	-1027.72583	884.72003	-878.82654	-939.43597	991.89276	-1133.68115	-935.40417	979.07672	-950.61578	-726.07239	1027.18713	-1066.14160	-719.13666	1024.47949	-837.44214	-902.47461	673.88849	-882.35748	-882.05304	472.02048	-894.13812	-830.79608	282.84860	-947.18512	-835.74957	64.93494	-1002.56702	-802.37170	38.83976	-929.85352	-990.77063	29.39295	-1226.08569	-886.89282	675.70233	-1224.69543	-913.75098	478.96085	-1215.27954	-777.64929	356.93524	-1174.00684	-657.63251	208.83595	-1106.86121	-615.92822	173.52196	-1232.19055	-726.97449	77.27259	-1006.80682	-785.46875	1806.02161	-3360.37061	2845.14990	1033.96985 
168	1.670	-908.13831	-885.32947	1736.96667	-1050.32019	-905.29633	1730.02698	-925.71063	-756.51715	1658.40137	-1067.65137	-765.15912	1649.61975	-1014.20605	-723.28290	1518.00610	-1020.38025	-693.28491	1237.64026	-984.85254	-866.93555	1463.16699	-996.04089	-935.43201	1296.94446	-1088.64575	-689.80988	1341.17725	-827.01868	-769.56293	1490.82996	-745.70807	-764.91028	1290.28735	-730.26587	-776.76636	1149.24292	-715.37628	-815.39203	1022.27393	-735.72571	-902.88538	915.42889	-711.62427	-852.60535	905.46808	-701.31342	-886.38232	849.79663	-1187.54834	-829.67432	1501.69495	-1278.17395	-843.53876	1311.22424	-1296.49109	-888.64856	1169.54993	-1297.77563	-948.43140	1062.32227	-1253.85388	-1013.80133	949.70398	-1302.09802	-985.92554	937.43982	-1284.65881	-1032.36023	883.61200	-876.24115	-945.92517	992.06720	-1130.68042	-944.64105	981.11597	-950.07556	-733.72363	1027.76306	-1065.63721	-727.81323	1025.50977	-836.46423	-906.01312	673.31238	-882.05389	-884.44550	471.89972	-894.47339	-831.70459	283.05872	-947.37317	-835.91510	65.08153	-1002.77307	-802.48358	39.04120	-929.69806	-990.85999	29.37155	-1225.04517	-901.01923	678.15247	-1222.62109	-930.49310	481.39755	-1214.75391	-797.91968	354.91272	-1175.46021	-683.16534	202.04886	-1108.98193	-642.25317	164.43785	-1234.31604	-758.39075	74.29307	-1005.77045	-793.71423	1806.74475	-3360.29883	2845.08154	1034.01465 
